ply
format ascii 1.0
comment Created by Blender 2.63 (monkey head)
element vertex 507
property float x
property float y
property float z
element face 500
property list uchar uint vertex_indices
end_header
0.468750 0.242188 0.757812
0.437500 0.164062 0.765625
0.500000 0.093750 0.687500
0.562500 0.242188 0.671875
-0.500000 0.093750 0.687500
-0.437500 0.164062 0.765625
-0.468750 0.242188 0.757812
-0.562500 0.242188 0.671875
0.546875 0.054688 0.578125
0.625000 0.242188 0.562500
-0.546875 0.054688 0.578125
-0.625000 0.242188 0.562500
0.351562 0.031250 0.718750
0.351562 -0.023438 0.617188
-0.351562 -0.023438 0.617188
-0.351562 0.031250 0.718750
0.351562 0.132812 0.781250
-0.351562 0.132812 0.781250
0.273438 0.164062 0.796875
0.203125 0.093750 0.742188
-0.203125 0.093750 0.742188
-0.273438 0.164062 0.796875
0.156250 0.054688 0.648438
-0.156250 0.054688 0.648438
0.140625 0.242188 0.742188
0.078125 0.242188 0.656250
-0.078125 0.242188 0.656250
-0.140625 0.242188 0.742188
0.242188 0.242188 0.796875
-0.242188 0.242188 0.796875
0.273438 0.328125 0.796875
0.203125 0.390625 0.742188
-0.203125 0.390625 0.742188
-0.273438 0.328125 0.796875
0.156250 0.437500 0.648438
-0.156250 0.437500 0.648438
0.351562 0.453125 0.718750
0.351562 0.515625 0.617188
-0.351562 0.515625 0.617188
-0.351562 0.453125 0.718750
0.351562 0.359375 0.781250
-0.351562 0.359375 0.781250
0.437500 0.328125 0.765625
0.500000 0.390625 0.687500
-0.500000 0.390625 0.687500
-0.437500 0.328125 0.765625
0.546875 0.437500 0.578125
-0.546875 0.437500 0.578125
0.445312 0.335938 0.781250
0.476562 0.242188 0.773438
-0.445312 0.335938 0.781250
-0.476562 0.242188 0.773438
0.351562 0.375000 0.804688
-0.351562 0.375000 0.804688
0.265625 0.335938 0.820312
-0.265625 0.335938 0.820312
0.226562 0.242188 0.820312
-0.226562 0.242188 0.820312
0.265625 0.156250 0.820312
-0.265625 0.156250 0.820312
0.351562 0.117188 0.804688
-0.351562 0.117188 0.804688
0.445312 0.156250 0.781250
-0.445312 0.156250 0.781250
0.351562 0.242188 0.828125
-0.351562 0.242188 0.828125
0.179688 -0.968750 0.554688
0.164062 -0.929688 0.632812
0.000000 -0.945312 0.640625
0.000000 -0.984375 0.578125
-0.164062 -0.929688 0.632812
-0.179688 -0.968750 0.554688
0.328125 -0.945312 0.523438
0.234375 -0.914062 0.632812
-0.234375 -0.914062 0.632812
-0.328125 -0.945312 0.523438
0.367188 -0.890625 0.531250
0.265625 -0.820312 0.664062
-0.265625 -0.820312 0.664062
-0.367188 -0.890625 0.531250
0.351562 -0.695312 0.570312
0.250000 -0.703125 0.687500
-0.250000 -0.703125 0.687500
-0.351562 -0.695312 0.570312
0.312500 -0.437500 0.570312
0.210938 -0.445312 0.710938
-0.210938 -0.445312 0.710938
-0.312500 -0.437500 0.570312
0.203125 -0.187500 0.562500
0.437500 -0.140625 0.531250
0.398438 -0.046875 0.671875
0.125000 -0.101562 0.812500
-0.398438 -0.046875 0.671875
-0.437500 -0.140625 0.531250
-0.203125 -0.187500 0.562500
-0.125000 -0.101562 0.812500
0.632812 -0.039062 0.539062
0.617188 0.054688 0.625000
-0.617188 0.054688 0.625000
-0.632812 -0.039062 0.539062
0.828125 0.148438 0.445312
0.726562 0.203125 0.601562
-0.726562 0.203125 0.601562
-0.828125 0.148438 0.445312
0.859375 0.429688 0.593750
0.742188 0.375000 0.656250
-0.742188 0.375000 0.656250
-0.859375 0.429688 0.593750
0.710938 0.484375 0.625000
0.687500 0.414062 0.726562
-0.687500 0.414062 0.726562
-0.710938 0.484375 0.625000
0.492188 0.601562 0.687500
0.437500 0.546875 0.796875
-0.437500 0.546875 0.796875
-0.492188 0.601562 0.687500
0.320312 0.757812 0.734375
0.312500 0.640625 0.835938
-0.312500 0.640625 0.835938
-0.320312 0.757812 0.734375
0.156250 0.718750 0.757812
0.203125 0.617188 0.851562
-0.203125 0.617188 0.851562
-0.156250 0.718750 0.757812
0.062500 0.492188 0.750000
0.101562 0.429688 0.843750
-0.101562 0.429688 0.843750
-0.062500 0.492188 0.750000
0.000000 0.429688 0.742188
0.000000 0.351562 0.820312
0.164062 0.414062 0.773438
0.250000 0.468750 0.757812
-0.250000 0.468750 0.757812
-0.164062 0.414062 0.773438
0.328125 0.476562 0.742188
-0.328125 0.476562 0.742188
0.429688 0.437500 0.718750
-0.429688 0.437500 0.718750
0.601562 0.375000 0.664062
-0.601562 0.375000 0.664062
0.640625 0.296875 0.648438
-0.640625 0.296875 0.648438
0.625000 0.187500 0.648438
-0.625000 0.187500 0.648438
0.492188 0.062500 0.671875
-0.492188 0.062500 0.671875
0.375000 0.015625 0.703125
-0.375000 0.015625 0.703125
0.203125 0.093750 0.742188
-0.203125 0.093750 0.742188
0.164062 0.140625 0.750000
0.000000 0.046875 0.726562
-0.164062 0.140625 0.750000
0.125000 0.304688 0.765625
-0.125000 0.304688 0.765625
0.000000 0.210938 0.765625
0.132812 0.210938 0.757812
-0.132812 0.210938 0.757812
0.062500 -0.882812 0.695312
0.000000 -0.890625 0.687500
-0.062500 -0.882812 0.695312
0.117188 -0.835938 0.710938
-0.117188 -0.835938 0.710938
0.109375 -0.718750 0.734375
-0.109375 -0.718750 0.734375
0.078125 -0.445312 0.750000
0.117188 -0.687500 0.734375
-0.117188 -0.687500 0.734375
-0.078125 -0.445312 0.750000
0.085938 -0.289062 0.742188
0.000000 -0.328125 0.742188
0.000000 -0.445312 0.750000
-0.085938 -0.289062 0.742188
0.000000 -0.679688 0.734375
0.000000 -0.765625 0.734375
0.125000 -0.226562 0.750000
0.132812 -0.226562 0.796875
0.093750 -0.273438 0.781250
-0.093750 -0.273438 0.781250
-0.132812 -0.226562 0.796875
-0.125000 -0.226562 0.750000
0.101562 -0.148438 0.742188
0.109375 -0.132812 0.781250
-0.109375 -0.132812 0.781250
-0.101562 -0.148438 0.742188
0.000000 -0.140625 0.742188
0.039062 -0.125000 0.781250
-0.039062 -0.125000 0.781250
0.000000 -0.195312 0.750000
0.000000 -0.187500 0.796875
0.000000 -0.320312 0.781250
0.078125 -0.250000 0.804688
0.000000 -0.289062 0.804688
-0.078125 -0.250000 0.804688
0.000000 -0.203125 0.828125
0.046875 -0.148438 0.812500
-0.046875 -0.148438 0.812500
0.093750 -0.156250 0.812500
-0.093750 -0.156250 0.812500
0.109375 -0.226562 0.828125
-0.109375 -0.226562 0.828125
0.164062 -0.242188 0.710938
-0.164062 -0.242188 0.710938
0.179688 -0.312500 0.710938
-0.179688 -0.312500 0.710938
0.257812 -0.312500 0.554688
-0.257812 -0.312500 0.554688
0.234375 -0.250000 0.554688
-0.234375 -0.250000 0.554688
0.000000 -0.773438 0.718750
0.093750 -0.742188 0.726562
-0.093750 -0.742188 0.726562
0.093750 -0.820312 0.710938
-0.093750 -0.820312 0.710938
0.046875 -0.867188 0.687500
-0.046875 -0.867188 0.687500
0.000000 -0.875000 0.687500
0.046875 -0.851562 0.632812
0.000000 -0.859375 0.632812
-0.046875 -0.851562 0.632812
0.093750 -0.812500 0.640625
-0.093750 -0.812500 0.640625
0.093750 -0.750000 0.664062
-0.093750 -0.750000 0.664062
0.000000 -0.781250 0.656250
0.187500 0.156250 0.773438
0.171875 0.218750 0.781250
-0.187500 0.156250 0.773438
-0.171875 0.218750 0.781250
0.179688 0.296875 0.781250
-0.179688 0.296875 0.781250
0.210938 0.375000 0.781250
-0.210938 0.375000 0.781250
0.226562 0.109375 0.781250
-0.226562 0.109375 0.781250
0.375000 0.062500 0.742188
-0.375000 0.062500 0.742188
0.476562 0.101562 0.718750
-0.476562 0.101562 0.718750
0.578125 0.195312 0.679688
-0.578125 0.195312 0.679688
0.585938 0.289062 0.687500
-0.585938 0.289062 0.687500
0.562500 0.351562 0.695312
-0.562500 0.351562 0.695312
0.421875 0.398438 0.773438
-0.421875 0.398438 0.773438
0.335938 0.429688 0.757812
-0.335938 0.429688 0.757812
0.273438 0.421875 0.773438
-0.273438 0.421875 0.773438
0.234375 0.359375 0.757812
0.281250 0.398438 0.765625
-0.234375 0.359375 0.757812
-0.281250 0.398438 0.765625
0.335938 0.406250 0.750000
-0.335938 0.406250 0.750000
0.414062 0.390625 0.750000
-0.414062 0.390625 0.750000
0.531250 0.335938 0.679688
-0.531250 0.335938 0.679688
0.554688 0.281250 0.671875
-0.554688 0.281250 0.671875
0.546875 0.210938 0.671875
-0.546875 0.210938 0.671875
0.460938 0.117188 0.703125
-0.460938 0.117188 0.703125
0.375000 0.085938 0.726562
-0.375000 0.085938 0.726562
0.242188 0.125000 0.757812
-0.242188 0.125000 0.757812
0.203125 0.171875 0.750000
-0.203125 0.171875 0.750000
0.195312 0.296875 0.757812
-0.195312 0.296875 0.757812
0.195312 0.226562 0.750000
-0.195312 0.226562 0.750000
0.109375 0.460938 0.609375
0.000000 0.406250 0.601562
-0.109375 0.460938 0.609375
0.195312 0.664062 0.617188
-0.195312 0.664062 0.617188
0.335938 0.687500 0.593750
-0.335938 0.687500 0.593750
0.484375 0.554688 0.554688
-0.484375 0.554688 0.554688
0.679688 0.453125 0.492188
-0.679688 0.453125 0.492188
0.796875 0.406250 0.460938
-0.796875 0.406250 0.460938
0.773438 0.164062 0.375000
-0.773438 0.164062 0.375000
0.601562 0.000000 0.414062
-0.601562 0.000000 0.414062
0.437500 -0.093750 0.468750
-0.437500 -0.093750 0.468750
0.000000 -0.570312 0.320312
0.000000 -0.484375 0.281250
0.179688 -0.414062 0.257812
0.125000 -0.539062 0.359375
-0.179688 -0.414062 0.257812
-0.125000 -0.539062 0.359375
0.000000 -0.804688 0.343750
0.140625 -0.757812 0.367188
-0.140625 -0.757812 0.367188
0.000000 -0.976562 0.460938
0.164062 -0.945312 0.437500
-0.164062 -0.945312 0.437500
0.328125 -0.914062 0.398438
-0.328125 -0.914062 0.398438
0.289062 -0.710938 0.382812
-0.289062 -0.710938 0.382812
0.250000 -0.500000 0.390625
-0.250000 -0.500000 0.390625
0.234375 -0.351562 0.406250
-0.234375 -0.351562 0.406250
0.218750 -0.281250 0.429688
0.210938 -0.226562 0.468750
-0.210938 -0.226562 0.468750
-0.218750 -0.281250 0.429688
0.203125 -0.171875 0.500000
-0.203125 -0.171875 0.500000
0.000000 0.070312 -0.828125
0.335938 0.054688 -0.664062
0.343750 -0.148438 -0.539062
0.000000 -0.195312 -0.671875
-0.343750 -0.148438 -0.539062
-0.335938 0.054688 -0.664062
0.296875 -0.312500 -0.265625
0.000000 -0.382812 -0.351562
-0.296875 -0.312500 -0.265625
0.210938 -0.390625 0.164062
0.000000 -0.460938 0.187500
-0.210938 -0.390625 0.164062
0.734375 -0.046875 0.070312
0.851562 0.234375 0.054688
-0.734375 -0.046875 0.070312
-0.851562 0.234375 0.054688
0.000000 0.562500 -0.851562
0.460938 0.437500 -0.703125
-0.460938 0.437500 -0.703125
0.000000 0.898438 0.289062
0.453125 0.851562 0.234375
0.453125 0.929688 -0.070312
0.000000 0.984375 -0.078125
-0.453125 0.929688 -0.070312
-0.453125 0.851562 0.234375
0.453125 0.867188 -0.382812
0.000000 0.898438 -0.546875
-0.453125 0.867188 -0.382812
0.726562 0.406250 0.335938
0.632812 0.453125 0.281250
-0.726562 0.406250 0.335938
-0.632812 0.453125 0.281250
0.796875 0.562500 0.125000
0.640625 0.703125 0.054688
-0.796875 0.562500 0.125000
-0.640625 0.703125 0.054688
0.796875 0.617188 -0.117188
0.640625 0.750000 -0.195312
-0.796875 0.617188 -0.117188
-0.640625 0.750000 -0.195312
0.796875 0.539062 -0.359375
0.640625 0.679688 -0.445312
-0.796875 0.539062 -0.359375
-0.640625 0.679688 -0.445312
0.773438 0.265625 -0.437500
0.617188 0.328125 -0.585938
-0.617188 0.328125 -0.585938
-0.773438 0.265625 -0.437500
0.460938 0.523438 0.429688
-0.460938 0.523438 0.429688
0.000000 0.570312 0.570312
0.859375 0.320312 -0.046875
-0.859375 0.320312 -0.046875
0.820312 0.328125 -0.203125
-0.820312 0.328125 -0.203125
0.429688 -0.195312 -0.210938
0.406250 -0.171875 0.148438
-0.429688 -0.195312 -0.210938
-0.406250 -0.171875 0.148438
0.593750 -0.125000 -0.164062
-0.593750 -0.125000 -0.164062
0.640625 -0.007812 -0.429688
0.484375 0.023438 -0.546875
-0.484375 0.023438 -0.546875
-0.640625 -0.007812 -0.429688
1.023438 0.476562 -0.312500
0.890625 0.406250 -0.234375
0.921875 0.359375 -0.218750
1.015625 0.414062 -0.289062
-0.921875 0.359375 -0.218750
-0.890625 0.406250 -0.234375
-1.023438 0.476562 -0.312500
-1.015625 0.414062 -0.289062
1.187500 0.437500 -0.390625
1.234375 0.507812 -0.421875
-1.187500 0.437500 -0.390625
-1.234375 0.507812 -0.421875
1.265625 0.289062 -0.406250
1.351562 0.320312 -0.421875
-1.265625 0.289062 -0.406250
-1.351562 0.320312 -0.421875
1.210938 0.078125 -0.406250
1.281250 0.054688 -0.429688
-1.210938 0.078125 -0.406250
-1.281250 0.054688 -0.429688
1.031250 -0.039062 -0.304688
1.039062 -0.101562 -0.328125
-1.031250 -0.039062 -0.304688
-1.039062 -0.101562 -0.328125
0.828125 -0.070312 -0.132812
0.773438 -0.140625 -0.125000
-0.828125 -0.070312 -0.132812
-0.773438 -0.140625 -0.125000
1.039062 0.000000 -0.367188
0.882812 -0.023438 -0.210938
-0.882812 -0.023438 -0.210938
-1.039062 0.000000 -0.367188
1.187500 0.093750 -0.445312
-1.187500 0.093750 -0.445312
1.234375 0.250000 -0.445312
-1.234375 0.250000 -0.445312
1.171875 0.359375 -0.437500
-1.171875 0.359375 -0.437500
1.023438 0.343750 -0.359375
-1.023438 0.343750 -0.359375
0.945312 0.304688 -0.289062
-0.945312 0.304688 -0.289062
0.718750 -0.023438 -0.171875
0.726562 0.000000 -0.070312
-0.718750 -0.023438 -0.171875
-0.726562 0.000000 -0.070312
0.843750 0.289062 -0.210938
-0.843750 0.289062 -0.210938
0.812500 -0.015625 -0.273438
-0.812500 -0.015625 -0.273438
0.843750 0.015625 -0.273438
0.718750 0.039062 -0.187500
-0.718750 0.039062 -0.187500
-0.843750 0.015625 -0.273438
0.757812 0.093750 -0.273438
0.820312 0.085938 -0.273438
-0.757812 0.093750 -0.273438
-0.820312 0.085938 -0.273438
0.835938 0.171875 -0.273438
0.796875 0.203125 -0.210938
-0.796875 0.203125 -0.210938
-0.835938 0.171875 -0.273438
0.890625 0.242188 -0.265625
-0.890625 0.242188 -0.265625
0.890625 0.234375 -0.320312
0.953125 0.289062 -0.343750
-0.890625 0.234375 -0.320312
-0.953125 0.289062 -0.343750
0.843750 0.171875 -0.320312
-0.843750 0.171875 -0.320312
0.765625 0.093750 -0.320312
-0.765625 0.093750 -0.320312
0.828125 0.078125 -0.320312
-0.828125 0.078125 -0.320312
0.851562 0.015625 -0.320312
-0.851562 0.015625 -0.320312
0.812500 -0.015625 -0.320312
-0.812500 -0.015625 -0.320312
0.882812 -0.015625 -0.265625
-0.882812 -0.015625 -0.265625
1.039062 0.328125 -0.414062
-1.039062 0.328125 -0.414062
1.187500 0.343750 -0.484375
-1.187500 0.343750 -0.484375
1.257812 0.242188 -0.492188
-1.257812 0.242188 -0.492188
1.210938 0.085938 -0.484375
-1.210938 0.085938 -0.484375
1.046875 0.000000 -0.421875
-1.046875 0.000000 -0.421875
0.937500 0.062500 -0.335938
0.890625 0.109375 -0.328125
-0.937500 0.062500 -0.335938
-0.890625 0.109375 -0.328125
1.000000 0.125000 -0.367188
0.960938 0.171875 -0.351562
-1.000000 0.125000 -0.367188
-0.960938 0.171875 -0.351562
1.054688 0.187500 -0.382812
1.015625 0.234375 -0.375000
-1.054688 0.187500 -0.382812
-1.015625 0.234375 -0.375000
1.109375 0.210938 -0.390625
1.085938 0.273438 -0.390625
-1.109375 0.210938 -0.390625
-1.085938 0.273438 -0.390625
0.789062 -0.125000 -0.328125
1.039062 -0.085938 -0.492188
-0.789062 -0.125000 -0.328125
-1.039062 -0.085938 -0.492188
1.312500 0.054688 -0.531250
-1.312500 0.054688 -0.531250
1.367188 0.296875 -0.500000
-1.367188 0.296875 -0.500000
1.250000 0.468750 -0.546875
-1.250000 0.468750 -0.546875
1.023438 0.437500 -0.484375
-1.023438 0.437500 -0.484375
0.859375 0.382812 -0.382812
-0.859375 0.382812 -0.382812
4 0 1 2 3
4 4 5 6 7
4 3 2 8 9
4 10 4 7 11
4 2 12 13 8
4 14 15 4 10
4 1 16 12 2
4 15 17 5 4
4 16 18 19 12
4 20 21 17 15
4 12 19 22 13
4 23 20 15 14
4 19 24 25 22
4 26 27 20 23
4 18 28 24 19
4 27 29 21 20
4 28 30 31 24
4 32 33 29 27
4 24 31 34 25
4 35 32 27 26
4 31 36 37 34
4 38 39 32 35
4 30 40 36 31
4 39 41 33 32
4 40 42 43 36
4 44 45 41 39
4 36 43 46 37
4 47 44 39 38
4 43 3 9 46
4 11 7 44 47
4 42 0 3 43
4 7 6 45 44
4 0 42 48 49
4 50 45 6 51
4 42 40 52 48
4 53 41 45 50
4 40 30 54 52
4 55 33 41 53
4 30 28 56 54
4 57 29 33 55
4 28 18 58 56
4 59 21 29 57
4 18 16 60 58
4 61 17 21 59
4 16 1 62 60
4 63 5 17 61
4 1 0 49 62
4 51 6 5 63
3 64 62 49
3 51 63 65
3 60 62 64
3 65 63 61
3 64 58 60
3 61 59 65
3 64 56 58
3 59 57 65
3 64 54 56
3 57 55 65
3 64 52 54
3 55 53 65
3 64 48 52
3 53 50 65
3 64 49 48
3 50 51 65
4 66 67 68 69
4 68 70 71 69
4 72 73 67 66
4 70 74 75 71
4 76 77 73 72
4 74 78 79 75
4 80 81 77 76
4 78 82 83 79
4 84 85 81 80
4 82 86 87 83
4 88 89 90 91
4 92 93 94 95
4 89 96 97 90
4 98 99 93 92
4 96 100 101 97
4 102 103 99 98
4 100 104 105 101
4 106 107 103 102
4 104 108 109 105
4 110 111 107 106
4 108 112 113 109
4 114 115 111 110
4 112 116 117 113
4 118 119 115 114
4 116 120 121 117
4 122 123 119 118
4 120 124 125 121
4 126 127 123 122
4 124 128 129 125
4 129 128 127 126
4 130 131 121 125
4 122 132 133 126
4 131 134 117 121
4 118 135 132 122
4 136 113 117 134
4 118 114 137 135
4 138 109 113 136
4 114 110 139 137
4 140 105 109 138
4 110 106 141 139
4 142 101 105 140
4 106 102 143 141
4 144 97 101 142
4 102 98 145 143
4 146 90 97 144
4 98 92 147 145
4 148 91 90 146
4 92 95 149 147
4 148 150 151 91
4 151 152 149 95
4 130 125 129 153
4 129 126 133 154
4 153 129 155 156
4 155 129 154 157
4 151 150 156 155
4 157 152 151 155
4 158 159 68 67
4 68 159 160 70
4 161 158 67 73
4 70 160 162 74
4 163 161 73 77
4 74 162 164 78
4 85 165 166 81
4 167 168 86 82
4 163 77 81 166
4 82 78 164 167
4 169 170 171 165
4 171 170 172 168
4 166 165 171 173
4 171 168 167 173
4 174 163 166 173
4 167 164 174 173
4 175 176 177 169
4 178 179 180 172
4 181 182 176 175
4 179 183 184 180
4 185 186 182 181
4 183 187 185 184
4 188 189 186 185
4 187 189 188 185
4 170 169 177 190
4 178 172 170 190
4 190 177 191 192
4 193 178 190 192
4 189 194 195 186
4 196 194 189 187
4 186 195 197 182
4 198 196 187 183
4 182 197 199 176
4 200 198 183 179
4 176 199 191 177
4 193 200 179 178
4 194 199 197 195
4 198 200 194 196
4 194 192 191 199
4 193 192 194 200
4 185 181 91 151
4 95 184 185 151
4 181 175 201 91
4 202 180 184 95
4 175 169 203 201
4 204 172 180 202
4 169 165 85 203
4 86 168 172 204
4 84 205 203 85
4 204 206 87 86
4 205 207 201 203
4 202 208 206 204
4 88 91 201 207
4 202 95 94 208
4 163 174 209 210
4 209 174 164 211
4 161 163 210 212
4 211 164 162 213
4 158 161 212 214
4 213 162 160 215
4 159 158 214 216
4 215 160 159 216
4 216 214 217 218
4 219 215 216 218
4 214 212 220 217
4 221 213 215 219
4 212 210 222 220
4 223 211 213 221
4 210 209 224 222
4 224 209 211 223
4 224 218 217 222
4 219 218 224 223
3 222 217 220
3 221 219 223
4 156 150 225 226
4 227 152 157 228
4 153 156 226 229
4 228 157 154 230
4 130 153 229 231
4 230 154 133 232
4 150 148 233 225
4 234 149 152 227
4 148 146 235 233
4 236 147 149 234
4 146 144 237 235
4 238 145 147 236
4 144 142 239 237
4 240 143 145 238
4 142 140 241 239
4 242 141 143 240
4 140 138 243 241
4 244 139 141 242
4 138 136 245 243
4 246 137 139 244
4 136 134 247 245
4 248 135 137 246
4 134 131 249 247
4 250 132 135 248
4 131 130 231 249
4 232 133 132 250
4 249 231 251 252
4 253 232 250 254
4 247 249 252 255
4 254 250 248 256
4 245 247 255 257
4 256 248 246 258
4 243 245 257 259
4 258 246 244 260
4 241 243 259 261
4 260 244 242 262
4 239 241 261 263
4 262 242 240 264
4 237 239 263 265
4 264 240 238 266
4 235 237 265 267
4 266 238 236 268
4 233 235 267 269
4 268 236 234 270
4 225 233 269 271
4 270 234 227 272
4 231 229 273 251
4 274 230 232 253
4 229 226 275 273
4 276 228 230 274
4 226 225 271 275
4 272 227 228 276
4 128 124 277 278
4 279 127 128 278
4 124 120 280 277
4 281 123 127 279
4 120 116 282 280
4 283 119 123 281
4 116 112 284 282
4 285 115 119 283
4 112 108 286 284
4 287 111 115 285
4 108 104 288 286
4 289 107 111 287
4 104 100 290 288
4 291 103 107 289
4 100 96 292 290
4 293 99 103 291
4 96 89 294 292
4 295 93 99 293
4 296 297 298 299
4 300 297 296 301
4 302 296 299 303
4 301 296 302 304
4 305 302 303 306
4 304 302 305 307
4 66 69 305 306
4 305 69 71 307
4 72 66 306 308
4 307 71 75 309
4 76 72 308 310
4 309 75 79 311
4 80 76 310 312
4 311 79 83 313
4 310 303 299 312
4 301 304 311 313
4 310 308 306 303
4 307 309 311 304
4 314 312 299 298
4 301 313 315 300
4 84 80 312 314
4 313 83 87 315
4 205 316 317 207
4 318 319 206 208
4 84 314 316 205
4 319 315 87 206
4 88 207 317 320
4 318 208 94 321
4 88 320 294 89
4 295 321 94 93
4 322 323 324 325
4 326 327 322 325
4 325 324 328 329
4 330 326 325 329
4 329 328 331 332
4 333 330 329 332
4 332 331 298 297
4 300 333 332 297
4 314 298 331 316
4 333 300 315 319
4 290 292 334 335
4 336 293 291 337
4 338 339 323 322
4 327 340 338 322
4 341 342 343 344
4 345 346 341 344
4 344 343 347 348
4 349 345 344 348
4 348 347 339 338
4 340 349 348 338
4 286 288 350 351
4 352 289 287 353
4 351 350 354 355
4 356 352 353 357
4 355 354 358 359
4 360 356 357 361
4 359 358 362 363
4 364 360 361 365
4 366 367 363 362
4 365 368 369 364
4 339 347 363 367
4 365 349 340 368
4 347 343 359 363
4 361 345 349 365
4 343 342 355 359
4 357 346 345 361
4 342 370 351 355
4 353 371 346 357
4 284 286 351 370
4 353 287 285 371
4 372 370 342 341
4 346 371 372 341
4 277 280 282 284
4 283 281 279 285
4 277 284 370 372
4 371 285 279 372
3 278 277 372
3 372 279 278
4 288 290 335 350
4 337 291 289 352
4 335 373 354 350
4 356 374 337 352
4 373 375 358 354
4 360 376 374 356
4 366 362 358 375
4 360 364 369 376
4 331 328 377 378
4 379 330 333 380
4 334 378 377 381
4 379 380 336 382
4 292 294 378 334
4 380 295 293 336
4 294 317 316 378
4 319 318 295 380
3 316 331 378
3 380 333 319
3 294 320 317
3 318 321 295
4 366 383 384 367
4 385 386 369 368
4 339 367 384 323
4 385 368 340 327
4 381 377 384 383
4 385 379 382 386
4 328 324 384 377
4 385 326 330 379
3 323 384 324
3 326 385 327
4 387 388 389 390
4 391 392 393 394
4 387 390 395 396
4 397 394 393 398
4 396 395 399 400
4 401 397 398 402
4 400 399 403 404
4 405 401 402 406
4 404 403 407 408
4 409 405 406 410
4 408 407 411 412
4 413 409 410 414
4 407 415 416 411
4 417 418 409 413
4 403 419 415 407
4 418 420 405 409
4 399 421 419 403
4 420 422 401 405
4 395 423 421 399
4 422 424 397 401
4 390 425 423 395
4 424 426 394 397
4 390 389 427 425
4 428 391 394 426
4 334 381 429 430
4 431 382 336 432
4 381 412 411 429
4 413 414 382 431
4 335 334 430 373
4 432 336 337 374
4 375 433 389 388
4 391 434 376 392
4 411 416 435 429
4 436 417 413 431
4 437 438 429 435
4 431 439 440 436
4 441 438 437 442
4 440 439 443 444
4 445 446 438 441
4 439 447 448 443
4 433 446 445 449
4 448 447 434 450
4 389 433 449 427
4 450 434 391 428
4 373 446 433 375
4 434 447 374 376
4 373 430 438 446
4 439 432 374 447
3 430 429 438
3 439 431 432
4 427 449 451 452
4 453 450 428 454
4 449 445 455 451
4 456 448 450 453
4 445 441 457 455
4 458 443 448 456
4 441 442 459 457
4 460 444 443 458
4 442 437 461 459
4 462 440 444 460
4 437 435 463 461
4 464 436 440 462
4 435 416 465 463
4 466 417 436 464
4 425 427 452 467
4 454 428 426 468
4 423 425 467 469
4 468 426 424 470
4 421 423 469 471
4 470 424 422 472
4 419 421 471 473
4 472 422 420 474
4 415 419 473 475
4 474 420 418 476
4 416 415 475 465
4 476 418 417 466
4 459 461 477 478
4 479 462 460 480
4 478 477 481 482
4 483 479 480 484
4 482 481 485 486
4 487 483 484 488
4 486 485 489 490
4 491 487 488 492
4 467 452 486 490
4 488 454 468 492
4 451 482 486 452
4 488 484 453 454
4 451 455 478 482
4 480 456 453 484
4 459 478 455 457
4 456 480 460 458
4 463 465 477 461
4 479 466 464 462
4 475 481 477 465
4 479 483 476 466
4 473 485 481 475
4 483 487 474 476
4 471 489 485 473
4 487 491 472 474
4 469 490 489 471
4 491 492 470 472
3 467 490 469
3 470 492 468
4 408 412 493 494
4 495 414 410 496
4 404 408 494 497
4 496 410 406 498
4 400 404 497 499
4 498 406 402 500
4 396 400 499 501
4 500 402 398 502
4 387 396 501 503
4 502 398 393 504
4 388 387 503 505
4 504 393 392 506
4 503 494 493 505
4 495 496 504 506
4 503 501 497 494
4 498 502 504 496
3 501 499 497
3 498 500 502
4 366 375 388 505
4 392 376 369 506
4 366 505 493 383
4 495 506 369 386
4 381 383 493 412
4 495 386 382 414
