ply
format ascii 1.0
comment version 0.0.27.0 github.com/mgerhardy/vengi
comment TextureFile nippon.png
element vertex 8
property float x
property float z
property float y
property float s
property float t
property uchar red
property uchar green
property uchar blue
property uchar alpha
element face 6
property list uchar uint vertex_indices
end_header
-55.000000 40.000000 0.000000 0.000000 1.000000 0 0 0 255
-55.000000 60.000000 0.000000 0.000000 1.000000 0 0 0 255
-35.000000 40.000000 0.000000 0.000000 1.000000 0 0 0 255
-35.000000 60.000000 0.000000 0.000000 1.000000 0 0 0 255
-55.000000 40.000000 20.000000 0.000000 1.000000 0 0 0 255
-55.000000 60.000000 20.000000 0.000000 1.000000 0 0 0 255
-35.000000 40.000000 20.000000 0.000000 1.000000 0 0 0 255
-35.000000 60.000000 20.000000 0.000000 1.000000 0 0 0 255
4 2 3 7 6
4 1 5 7 3
4 4 6 7 5
4 0 4 5 1
4 0 2 6 4
4 0 1 3 2
