{"accessors":[{"bufferView":0,"componentType":5125,"count":972,"max":[259],"min":[0],"type":"SCALAR"},{"bufferView":1,"componentType":5126,"count":260,"max":[32.0,32.0,32.0],"min":[0.0,0.0,0.0],"type":"VEC3"},{"bufferView":1,"byteOffset":12,"componentType":5126,"count":260,"type":"VEC2"}],"asset":{"generator":"voxconvert 0.0.27.0","version":"2.0"},"bufferViews":[{"buffer":0,"byteLength":3888,"target":34963},{"buffer":0,"byteLength":5200,"byteOffset":3888,"byteStride":20,"target":34962}],"buffers":[{"byteLength":9088,"uri":"data:application/octet-stream;base64,"}],"images":[{"uri":"data:image/png;base64,"}],"materials":[{"name":"12212233864738342835","pbrMetallicRoughness":{"baseColorTexture":{"index":0},"metallicFactor":0.0}}],"meshes":[{"name":"data/tests/rgb.cub","primitives":[{"attributes":{"POSITION":1,"TEXCOORD_0":2},"indices":0,"material":0,"mode":4}]}],"nodes":[{"children":[1],"name":"root"},{"mesh":0,"name":"data/tests/rgb.cub"}],"scenes":[{"nodes":[0]}],"textures":[{"source":0}]}
